# xmcd
#
# Track frame offsets:
#	150
#	18038
#	38750
#	52463
#	65570
#	86079
#	100292
#	115324
#	130229
#	148561
#	162532
#	177492
#	191722
#	211322
#	224016
#	238368
#	252733
#	273532
#	288577
#	302473
#
# Disc length: 4221 seconds
#
# Revision: 0
# Processed by: cddbd v1.5.2PL0 Copyright (c) Steve Scherf et al.
# Submitted via: EasyCDDAExtractor 16.0.6.1
#
DISCID=47107b14
DTITLE=Συλλογικός δίσκος - Τα ρεμπέτικα Β 1922-1937 04 Α
DYEAR=2010
DGENRE=Ρεμπέτικη
TTITLE0=Μπέζος Κώστας ή Κωστής Α. - Στην υπόγα [ζεϊμπ., Κώστας Μπέζος-Τέτος Δη
TTITLE0=μητριάδης, Αθ. 20.5.1930]
TTITLE1=Διαμαντίδης Αντώνης ή Νταλγκάς - Σμυρνιά καμωματού [ρεμπ., Κώστας Σκαρ
TTITLE1=βέλης, Αθήνα 1932]
TTITLE2=Μαρσέλος Κώστας ή Νούρος - Στην Αθήνα [χασάπ., Παν. Τούντας, Αθήνα 193
TTITLE2=2]
TTITLE3=Εσκενάζυ Ρόζα - Ταμπαχανιώτικος μανές [Αθήνα 1931 ή 1932]
TTITLE4=Κατσαρός Γιώργος - Βρε τι μάγκας πού 'μαι 'γω [Γ. Κατσαρός, Νέα Υερσέη
TTITLE4=4.6.1930]
TTITLE5=Καλλίνικος Δημήτρης ή Αραπάκης - Καρδιοκλέφτρα [Ι. Δραγάτσης, Αθήνα 19
TTITLE5=29 ή 1930]
TTITLE6=Ασίκης Γρηγόρης - Ο μερακλής των συνοικισμών [Γρ. Ασίκης, Αθήνα 1931]
TTITLE7=Διαμαντίδης Αντώνης ή Νταλγκάς - Φονιάς θα γίνω [Παν. Βαϊνδηρλής, Αθήν
TTITLE7=α 17.5.1929]
TTITLE8=Δημητριάδης Τέτος - Μισιρλού [Νίκος Ρουμπάνης, Ν. Υόρκη 7.1927]
TTITLE9=Βιδάλης Γιώργος - Αν σ' αγαπώ τι φταίω εγώ [καλαμ., Παν. Τούντας, Αθήν
TTITLE9=α 1931]
TTITLE10=Διαμαντίδης Αντώνης ή Νταλγκάς - Τι σε μέλει εσένανε [Αθήνα 22.6.1928
TTITLE10=]
TTITLE11=Κασιμάτης Ζαχαρίας - Μανώλης χασικλής [ζεϊμπ., Ι. Δραγάτσης, Αθήνα 19
TTITLE11=30]
TTITLE12=Νικολάου Τάκης - Όταν σε βλέπω κι έρχεσαι [Ν. Υόρκη 25.4.1927]
TTITLE13=Βιδάλης Γιώργος - Το αλανάκι [ομ. οπερ., Ζάχος Θάνος (Ζαχ. Νοταράκης)
TTITLE13=Αθήνα 1928]
TTITLE14=Αμπατζή Ρίτα - Τσαγκαράκι [Κ. Σκαρβέλης, Αθήνα 1932]
TTITLE15=Ασίκης Γρηγόρης - Μιά Σμυρνιά στην Κοκκινιά [Αντ. Διαμαντίδης, Αθήνα 
TTITLE15=1931]
TTITLE16=Κατσαρός Γιώργος - Και γιατί δεν μάς το λες [ρεμπ., Ν. Υερσέη 18.5.19
TTITLE16=28]
TTITLE17=Βιδάλης Γιώργος - Ο χαρτοπαίχτης [Παν. Τούντας, Αθήνα 1930]
TTITLE18=Διατσέντε Ισμήνη - Κουκλάκι μου [Παν. Τούντας, Αθήνα 1928]
TTITLE19=Τραγουδιστές της Odeon - Συλλογή Τούντα [Παν. Τούντας, Αθήνα 1931]
EXTD=
EXTT0=
EXTT1=
EXTT2=
EXTT3=
EXTT4=
EXTT5=
EXTT6=
EXTT7=
EXTT8=
EXTT9=
EXTT10=
EXTT11=
EXTT12=
EXTT13=
EXTT14=
EXTT15=
EXTT16=
EXTT17=
EXTT18=
EXTT19=
PLAYORDER=
